<?xml version="1.0" standalone="no"?>
<!DOCTYPE svg PUBLIC "-//W3C//DTD SVG 20010904//EN"
 "http://www.w3.org/TR/2001/REC-SVG-20010904/DTD/svg10.dtd">
<svg version="1.0" xmlns="http://www.w3.org/2000/svg"
 width="612.000000pt" height="612.000000pt" viewBox="0 0 612.000000 612.000000"
 preserveAspectRatio="xMidYMid meet">

<g transform="translate(0.000000,612.000000) scale(0.100000,-0.100000)"
fill="#000000" stroke="none">
<path d="M0 3060 l0 -3060 3060 0 3060 0 0 3060 0 3060 -3060 0 -3060 0 0
-3060z m3395 1313 c55 -12 109 -23 120 -26 11 -3 43 -11 70 -17 28 -7 54 -17
59 -21 6 -5 15 -9 22 -9 6 0 27 -6 45 -14 19 -8 36 -14 39 -13 7 1 128 -65
212 -117 272 -165 470 -483 529 -851 19 -116 16 -408 -5 -525 -93 -518 -438
-881 -957 -1008 -197 -49 -258 -53 -786 -59 l-503 -6 0 1017 0 1017 70 -2 70
-2 0 -641 c1 -353 3 -774 6 -936 l6 -295 276 -3 c331 -3 613 11 739 37 514
107 829 412 930 901 24 119 24 401 -1 524 -60 298 -195 521 -411 681 -79 58
-207 129 -266 146 -21 7 -36 16 -32 22 3 6 2 7 -4 4 -5 -3 -38 3 -74 14 -86
27 -192 49 -237 49 -21 0 -32 4 -25 8 7 4 -9 8 -35 8 -26 -1 -341 0 -699 2
l-653 2 0 63 c0 35 3 67 7 71 4 4 318 5 698 3 647 -4 696 -5 790 -24z m-73
-313 c392 -76 685 -349 780 -726 19 -77 23 -115 23 -279 0 -177 -2 -197 -28
-289 -83 -297 -261 -507 -543 -637 -177 -82 -290 -98 -681 -99 l-293 0 0 74 0
74 333 5 c254 4 347 8 397 20 368 89 586 312 661 677 16 76 13 290 -5 380 -56
288 -235 505 -504 613 -160 64 -196 67 -833 67 -427 0 -569 3 -569 12 0 6 -3
8 -7 4 -5 -4 -8 -510 -8 -1124 l0 -1117 -70 0 -70 0 -3 1170 c-1 644 0 1176 3
1183 3 9 145 12 659 12 613 0 662 -1 758 -20z m-72 -343 c234 -51 416 -224
476 -452 52 -200 18 -444 -86 -605 -40 -62 -142 -156 -206 -191 -137 -73 -240
-89 -586 -89 l-268 0 0 674 0 675 28 3 c15 2 149 3 297 2 210 -1 287 -5 345
-17z"/>
<path d="M2729 3586 c-2 -2 -3 -241 -1 -530 l2 -526 189 0 c303 0 431 34 540
141 95 95 141 221 141 393 0 280 -134 459 -383 510 -55 12 -133 16 -280 16
-112 0 -206 -2 -208 -4z"/>
</g>
</svg>
